<mxfile host="Electron" agent="Mozilla/5.0 (Windows NT 10.0; Win64; x64) AppleWebKit/537.36 (KHTML, like Gecko) draw.io/26.1.1 Chrome/132.0.6834.210 Electron/34.3.3 Safari/537.36" version="26.1.1">
  <diagram name="Page-1" id="j8HmsG2bWd-zicpUcvR7">
    <mxGraphModel dx="1115" dy="683" grid="1" gridSize="10" guides="1" tooltips="1" connect="1" arrows="1" fold="1" page="1" pageScale="1" pageWidth="1169" pageHeight="827" math="0" shadow="0">
      <root>
        <mxCell id="0" />
        <mxCell id="1" parent="0" />
        <mxCell id="YCe8AYg2GE5YBZOBbI6a-5" style="edgeStyle=orthogonalEdgeStyle;rounded=0;orthogonalLoop=1;jettySize=auto;html=1;exitX=0.5;exitY=1;exitDx=0;exitDy=0;entryX=0.5;entryY=0;entryDx=0;entryDy=0;" edge="1" parent="1" source="YCe8AYg2GE5YBZOBbI6a-1" target="YCe8AYg2GE5YBZOBbI6a-4">
          <mxGeometry relative="1" as="geometry" />
        </mxCell>
        <mxCell id="YCe8AYg2GE5YBZOBbI6a-1" value="" style="ellipse;fillColor=strokeColor;html=1;" vertex="1" parent="1">
          <mxGeometry x="520" y="70" width="30" height="30" as="geometry" />
        </mxCell>
        <mxCell id="YCe8AYg2GE5YBZOBbI6a-2" value="" style="ellipse;html=1;shape=endState;fillColor=strokeColor;" vertex="1" parent="1">
          <mxGeometry x="680" y="565" width="30" height="30" as="geometry" />
        </mxCell>
        <mxCell id="YCe8AYg2GE5YBZOBbI6a-7" style="edgeStyle=orthogonalEdgeStyle;rounded=0;orthogonalLoop=1;jettySize=auto;html=1;entryX=0.5;entryY=0;entryDx=0;entryDy=0;" edge="1" parent="1" source="YCe8AYg2GE5YBZOBbI6a-4" target="YCe8AYg2GE5YBZOBbI6a-6">
          <mxGeometry relative="1" as="geometry" />
        </mxCell>
        <mxCell id="YCe8AYg2GE5YBZOBbI6a-4" value="display the task list" style="html=1;align=center;verticalAlign=top;rounded=1;absoluteArcSize=1;arcSize=10;dashed=0;whiteSpace=wrap;" vertex="1" parent="1">
          <mxGeometry x="465" y="170" width="140" height="40" as="geometry" />
        </mxCell>
        <mxCell id="YCe8AYg2GE5YBZOBbI6a-9" style="rounded=0;orthogonalLoop=1;jettySize=auto;html=1;entryX=0.5;entryY=0;entryDx=0;entryDy=0;" edge="1" parent="1" source="YCe8AYg2GE5YBZOBbI6a-6" target="YCe8AYg2GE5YBZOBbI6a-8">
          <mxGeometry relative="1" as="geometry" />
        </mxCell>
        <mxCell id="YCe8AYg2GE5YBZOBbI6a-6" value="choose filter or sort option" style="html=1;align=center;verticalAlign=top;rounded=1;absoluteArcSize=1;arcSize=10;dashed=0;whiteSpace=wrap;" vertex="1" parent="1">
          <mxGeometry x="465" y="250" width="140" height="40" as="geometry" />
        </mxCell>
        <mxCell id="YCe8AYg2GE5YBZOBbI6a-13" style="edgeStyle=orthogonalEdgeStyle;rounded=0;orthogonalLoop=1;jettySize=auto;html=1;exitX=0.25;exitY=1;exitDx=0;exitDy=0;entryX=0.5;entryY=0;entryDx=0;entryDy=0;" edge="1" parent="1" source="YCe8AYg2GE5YBZOBbI6a-8" target="YCe8AYg2GE5YBZOBbI6a-11">
          <mxGeometry relative="1" as="geometry" />
        </mxCell>
        <mxCell id="YCe8AYg2GE5YBZOBbI6a-14" style="edgeStyle=orthogonalEdgeStyle;rounded=0;orthogonalLoop=1;jettySize=auto;html=1;exitX=0.75;exitY=1;exitDx=0;exitDy=0;entryX=0.5;entryY=0;entryDx=0;entryDy=0;" edge="1" parent="1" source="YCe8AYg2GE5YBZOBbI6a-8" target="YCe8AYg2GE5YBZOBbI6a-12">
          <mxGeometry relative="1" as="geometry" />
        </mxCell>
        <mxCell id="YCe8AYg2GE5YBZOBbI6a-8" value="" style="rounded=0;whiteSpace=wrap;html=1;fillColor=#000000;" vertex="1" parent="1">
          <mxGeometry x="467.5" y="320" width="135" height="10" as="geometry" />
        </mxCell>
        <mxCell id="YCe8AYg2GE5YBZOBbI6a-18" style="edgeStyle=orthogonalEdgeStyle;rounded=0;orthogonalLoop=1;jettySize=auto;html=1;exitX=0.5;exitY=1;exitDx=0;exitDy=0;entryX=0.5;entryY=0;entryDx=0;entryDy=0;" edge="1" parent="1" source="YCe8AYg2GE5YBZOBbI6a-11">
          <mxGeometry relative="1" as="geometry">
            <mxPoint x="450" y="450" as="targetPoint" />
          </mxGeometry>
        </mxCell>
        <mxCell id="YCe8AYg2GE5YBZOBbI6a-11" value="choose filter option" style="html=1;align=center;verticalAlign=top;rounded=1;absoluteArcSize=1;arcSize=10;dashed=0;whiteSpace=wrap;" vertex="1" parent="1">
          <mxGeometry x="380" y="374" width="140" height="40" as="geometry" />
        </mxCell>
        <mxCell id="YCe8AYg2GE5YBZOBbI6a-19" style="edgeStyle=orthogonalEdgeStyle;rounded=0;orthogonalLoop=1;jettySize=auto;html=1;exitX=0.5;exitY=1;exitDx=0;exitDy=0;entryX=0.5;entryY=0;entryDx=0;entryDy=0;" edge="1" parent="1" source="YCe8AYg2GE5YBZOBbI6a-12">
          <mxGeometry relative="1" as="geometry">
            <mxPoint x="617.5" y="450" as="targetPoint" />
          </mxGeometry>
        </mxCell>
        <mxCell id="YCe8AYg2GE5YBZOBbI6a-12" value="choose sort option" style="html=1;align=center;verticalAlign=top;rounded=1;absoluteArcSize=1;arcSize=10;dashed=0;whiteSpace=wrap;" vertex="1" parent="1">
          <mxGeometry x="550" y="374" width="140" height="40" as="geometry" />
        </mxCell>
        <mxCell id="YCe8AYg2GE5YBZOBbI6a-26" style="edgeStyle=orthogonalEdgeStyle;rounded=0;orthogonalLoop=1;jettySize=auto;html=1;exitX=0.5;exitY=1;exitDx=0;exitDy=0;entryX=0.75;entryY=0;entryDx=0;entryDy=0;" edge="1" parent="1" source="YCe8AYg2GE5YBZOBbI6a-21" target="YCe8AYg2GE5YBZOBbI6a-24">
          <mxGeometry relative="1" as="geometry" />
        </mxCell>
        <mxCell id="YCe8AYg2GE5YBZOBbI6a-21" value="display&amp;nbsp;&lt;span style=&quot;color: rgba(0, 0, 0, 0); font-family: monospace; font-size: 0px; text-align: start; text-wrap-mode: nowrap;&quot;&gt;%3CmxGraphModel%3E%3Croot%3E%3CmxCell%20id%3D%220%22%2F%3E%3CmxCell%20id%3D%221%22%20parent%3D%220%22%2F%3E%3CmxCell%20id%3D%222%22%20value%3D%22choose%20sort%20option%22%20style%3D%22html%3D1%3Balign%3Dcenter%3BverticalAlign%3Dtop%3Brounded%3D1%3BabsoluteArcSize%3D1%3BarcSize%3D10%3Bdashed%3D0%3BwhiteSpace%3Dwrap%3B%22%20vertex%3D%221%22%20parent%3D%221%22%3E%3CmxGeometry%20x%3D%22550%22%20y%3D%22374%22%20width%3D%22140%22%20height%3D%2240%22%20as%3D%22geometry%22%2F%3E%3C%2FmxCell%3E%3C%2Froot%3E%3C%2FmxGraphModel%3E&lt;/span&gt;available sorting criteria" style="html=1;align=center;verticalAlign=top;rounded=1;absoluteArcSize=1;arcSize=10;dashed=0;whiteSpace=wrap;" vertex="1" parent="1">
          <mxGeometry x="550" y="450" width="140" height="40" as="geometry" />
        </mxCell>
        <mxCell id="YCe8AYg2GE5YBZOBbI6a-25" style="edgeStyle=orthogonalEdgeStyle;rounded=0;orthogonalLoop=1;jettySize=auto;html=1;exitX=0.5;exitY=1;exitDx=0;exitDy=0;entryX=0.25;entryY=0;entryDx=0;entryDy=0;" edge="1" parent="1" source="YCe8AYg2GE5YBZOBbI6a-22" target="YCe8AYg2GE5YBZOBbI6a-24">
          <mxGeometry relative="1" as="geometry" />
        </mxCell>
        <mxCell id="YCe8AYg2GE5YBZOBbI6a-22" value="display&amp;nbsp;&lt;span style=&quot;color: rgba(0, 0, 0, 0); font-family: monospace; font-size: 0px; text-align: start; text-wrap-mode: nowrap;&quot;&gt;%3CmxGraphModel%3E%3Croot%3E%3CmxCell%20id%3D%220%22%2F%3E%3CmxCell%20id%3D%221%22%20parent%3D%220%22%2F%3E%3CmxCell%20id%3D%222%22%20value%3D%22choose%20sort%20option%22%20style%3D%22html%3D1%3Balign%3Dcenter%3BverticalAlign%3Dtop%3Brounded%3D1%3BabsoluteArcSize%3D1%3BarcSize%3D10%3Bdashed%3D0%3BwhiteSpace%3Dwrap%3B%22%20vertex%3D%221%22%20parent%3D%221%22%3E%3CmxGeometry%20x%3D%22550%22%20y%3D%22374%22%20width%3D%22140%22%20height%3D%2240%22%20as%3D%22geometry%22%2F%3E%3C%2FmxCell%3E%3C%2Froot%3E%3C%2FmxGraphModel%3E&lt;/span&gt;available filtering criteria" style="html=1;align=center;verticalAlign=top;rounded=1;absoluteArcSize=1;arcSize=10;dashed=0;whiteSpace=wrap;" vertex="1" parent="1">
          <mxGeometry x="380" y="450" width="140" height="40" as="geometry" />
        </mxCell>
        <mxCell id="YCe8AYg2GE5YBZOBbI6a-28" style="edgeStyle=orthogonalEdgeStyle;rounded=0;orthogonalLoop=1;jettySize=auto;html=1;exitX=0;exitY=0.5;exitDx=0;exitDy=0;entryX=0;entryY=0.5;entryDx=0;entryDy=0;" edge="1" parent="1" source="YCe8AYg2GE5YBZOBbI6a-23" target="YCe8AYg2GE5YBZOBbI6a-4">
          <mxGeometry relative="1" as="geometry">
            <Array as="points">
              <mxPoint x="220" y="580" />
              <mxPoint x="220" y="190" />
            </Array>
          </mxGeometry>
        </mxCell>
        <mxCell id="YCe8AYg2GE5YBZOBbI6a-31" style="edgeStyle=orthogonalEdgeStyle;rounded=0;orthogonalLoop=1;jettySize=auto;html=1;exitX=1;exitY=0.5;exitDx=0;exitDy=0;entryX=0;entryY=0.5;entryDx=0;entryDy=0;" edge="1" parent="1" source="YCe8AYg2GE5YBZOBbI6a-23" target="YCe8AYg2GE5YBZOBbI6a-2">
          <mxGeometry relative="1" as="geometry">
            <mxPoint x="650" y="580" as="targetPoint" />
          </mxGeometry>
        </mxCell>
        <mxCell id="YCe8AYg2GE5YBZOBbI6a-23" value="apply the choice" style="html=1;align=center;verticalAlign=top;rounded=1;absoluteArcSize=1;arcSize=10;dashed=0;whiteSpace=wrap;" vertex="1" parent="1">
          <mxGeometry x="467.5" y="560" width="140" height="40" as="geometry" />
        </mxCell>
        <mxCell id="YCe8AYg2GE5YBZOBbI6a-24" value="" style="rounded=0;whiteSpace=wrap;html=1;fillColor=#000000;" vertex="1" parent="1">
          <mxGeometry x="460" y="520" width="135" height="10" as="geometry" />
        </mxCell>
        <mxCell id="YCe8AYg2GE5YBZOBbI6a-27" style="edgeStyle=orthogonalEdgeStyle;rounded=0;orthogonalLoop=1;jettySize=auto;html=1;exitX=0.5;exitY=1;exitDx=0;exitDy=0;entryX=0.446;entryY=0.025;entryDx=0;entryDy=0;entryPerimeter=0;" edge="1" parent="1" source="YCe8AYg2GE5YBZOBbI6a-24" target="YCe8AYg2GE5YBZOBbI6a-23">
          <mxGeometry relative="1" as="geometry" />
        </mxCell>
      </root>
    </mxGraphModel>
  </diagram>
</mxfile>
